<?xml version="1.0" standalone="no"?>
<!DOCTYPE svg PUBLIC "-//W3C//DTD SVG 20010904//EN"
 "http://www.w3.org/TR/2001/REC-SVG-20010904/DTD/svg10.dtd">
<svg version="1.0" xmlns="http://www.w3.org/2000/svg"
 width="83.000000pt" height="83.000000pt" viewBox="0 0 83.000000 83.000000"
 preserveAspectRatio="xMidYMid meet">
<metadata>
Created by potrace 1.11, written by Peter Selinger 2001-2013
</metadata>
<g transform="translate(0.000000,83.000000) scale(0.100000,-0.100000)"
fill="#000000" stroke="none">
<path d="M0 415 l0 -415 415 0 415 0 0 415 0 415 -415 0 -415 0 0 -415z m766
142 c30 -35 31 -76 2 -112 -15 -20 -18 -30 -10 -33 17 -5 42 -56 42 -86 0 -14
-13 -40 -29 -58 -28 -32 -32 -33 -120 -36 l-91 -4 0 182 0 182 91 -4 c85 -3
92 -5 115 -31z"/>
<path d="M600 495 l0 -55 53 0 c59 0 87 19 87 58 0 36 -27 52 -86 52 l-54 0 0
-55z"/>
<path d="M600 335 l0 -65 55 0 c62 0 95 22 95 65 0 43 -33 65 -95 65 l-55 0 0
-65z"/>
</g>
</svg>
